<svg xmlns="http://www.w3.org/2000/svg" width="34" height="32" viewBox="0 0 34 32">
  <defs>
    <style>
      .cls-1 {
        fill: #5678ce;
        fill-rule: evenodd;
      }
    </style>
  </defs>
  <path class="cls-1" d="M26.367,7.255a3.562,3.562,0,0,0,2.564-1,3.655,3.655,0,0,0,.153-5.091l-0.036-.039A3.567,3.567,0,0,0,23.969,1a3.655,3.655,0,0,0-.153,5.091l0.036,0.039A3.565,3.565,0,0,0,26.367,7.255Zm5.895,3.638a3.571,3.571,0,0,0-4.927,1.252,3.65,3.65,0,0,0,1.2,4.952l0.04,0.024A3.571,3.571,0,0,0,33.5,15.87a3.65,3.65,0,0,0-1.2-4.952l-0.039-.024h0ZM3.606,2.394a3.59,3.59,0,0,0-3.6,3.583,3.6,3.6,0,0,0,3.51,3.674,3.63,3.63,0,0,0,.092-7.257h0Zm12.1,22.356a3.547,3.547,0,0,0-1.833.461,3.648,3.648,0,0,0-1.4,4.9l0.023,0.041a3.573,3.573,0,0,0,4.888,1.394,3.648,3.648,0,0,0,1.4-4.9l-0.023-.041A3.585,3.585,0,0,0,15.705,24.75Zm-0.6-.57a4.14,4.14,0,0,1,1.2.024l0.042-2.248c-0.211.012-.421,0.023-0.635,0.017a8.115,8.115,0,0,1-5.9-2.755L9.8,19.208q-0.244-.278-0.463-0.572c-0.01-.013-0.018-0.026-0.027-0.038-0.136-.19-0.273-0.384-0.392-0.585-0.016-.026-0.03-0.053-0.045-0.079-0.112-.191-0.22-0.385-0.318-0.584C8.533,17.306,8.515,17.26,8.5,17.217c-0.087-.187-0.171-0.376-0.244-0.57-0.025-.066-0.044-0.134-0.068-0.2-0.062-.177-0.123-0.355-0.173-0.537-0.025-.093-0.042-0.187-0.068-0.278-0.036-.164-0.075-0.326-0.1-0.491-0.023-.129-0.033-0.26-0.05-0.39s-0.039-.271-0.05-0.408c-0.016-.219-0.019-0.441-0.018-0.664,0-.053-0.005-0.105,0-0.158V13.492c0.007-.248.026-0.495,0.054-0.74,0.01-.083.023-0.165,0.035-0.247,0.025-.172.054-0.343,0.089-0.513,0.018-.089.039-0.177,0.06-0.266,0.04-.164.086-0.325,0.136-0.487,0.025-.082.049-0.164,0.076-0.244,0.011-.031.018-0.064,0.03-0.1l-0.844-.308A9.189,9.189,0,0,0,15.13,22.838ZM9.261,8.874h0c0.005-.008.012-0.013,0.017-0.021a8.31,8.31,0,0,1,.572-0.7c0.04-.043.08-0.085,0.12-0.127q0.279-.3.585-0.564c0.031-.027.062-0.056,0.094-0.082a8.143,8.143,0,0,1,2.48-1.441L13.2,5.91a7.969,7.969,0,0,1,.812-0.239l0.166-.039q0.376-.081.763-0.126c0.068-.008.129-0.019,0.194-0.026a8.183,8.183,0,0,1,.952-0.035H16.1c0.239,0.006.477,0.026,0.712,0.053l0.2,0.025c0.228,0.032.455,0.07,0.682,0.121,0.051,0.012.1,0.026,0.152,0.039q0.273,0.07.539,0.154L18.6,5.907c0.208,0.077.412,0.158,0.617,0.25,0.041,0.019.08,0.04,0.121,0.059q0.263,0.123.517,0.267c0.058,0.033.116,0.065,0.173,0.1,0.038,0.023.078,0.043,0.117,0.07l0.468-.775A9.03,9.03,0,0,0,8.492,8.4L7.369,7.7a4.233,4.233,0,0,1-.628,1.029l1.9,1.179a8.317,8.317,0,0,1,.623-1.034v0Zm17.025,4.441-2.229-.046c0.011,0.209.022,0.418,0.017,0.626s-0.024.39-.042,0.583h0a0.526,0.526,0,0,1-.007.056c-0.018.182-.044,0.36-0.073,0.537-0.007.047-.016,0.093-0.024,0.139a8.256,8.256,0,0,1-3.894,5.619c-0.055.034-.111,0.066-0.167,0.1-0.136.076-.273,0.149-0.409,0.218-0.095.047-.192,0.089-0.288,0.132-0.116.051-.232,0.1-0.351,0.15-0.166.065-.336,0.121-0.508,0.175-0.073.023-.145,0.049-0.22,0.069-0.2.056-.4,0.107-0.607,0.148l0.174,0.89a9.194,9.194,0,0,0,7.277-8.21l1.329,0.027a4.258,4.258,0,0,1,.018-1.208v0ZM22.232,8.489h0c0.009,0.012.017,0.026,0.027,0.037a8.267,8.267,0,0,1,.554.78c0.03,0.049.056,0.1,0.084,0.148q0.2,0.329.363,0.676c0.043,0.091.083,0.182,0.123,0.275,0.089,0.209.169,0.417,0.242,0.63,0.031,0.091.064,0.181,0.092,0.273a8.263,8.263,0,0,1,.221.9c0,0.007,0,.013,0,0.021l0.886-.161A9.16,9.16,0,0,0,22.89,7.862l0.96-.918a3.833,3.833,0,0,1-.823-0.878L21.408,7.614A8.287,8.287,0,0,1,22.232,8.489Zm-6.448,3.132a15.747,15.747,0,0,1,1.862.088,3.458,3.458,0,0,1,2.93,1.655c0-3.4-4.792-3.75-4.792-3.75V8l-4.151,2.68,4.151,2.68V11.621Zm0.641,4.327a15.772,15.772,0,0,1-1.862-.088,3.458,3.458,0,0,1-2.93-1.655c0,3.4,4.7,4.591,4.7,4.591l0.1,0.77,4.151-2.68-4.151-2.68v1.742Z"/>
</svg>
