<svg xmlns="http://www.w3.org/2000/svg" width="20" height="20" viewBox="0 0 20 20">
  <defs>
    <style>
      .cls-1 {
        fill: #5678ce;
        fill-rule: evenodd;
      }
    </style>
  </defs>
  <path id="Shape_1137_copy_2" data-name="Shape 1137 copy 2" class="cls-1" d="M7.192,4.627H20V0.848A0.853,0.853,0,0,0,19.149,0H7.192V4.627Zm0,1.656H20V9.171H7.192V6.283Zm0,4.544H20v2.888H7.192V10.827Zm0,4.5v4.629H19.149A0.853,0.853,0,0,0,20,19.108v-3.78H7.192ZM5.532,0H0.851A0.853,0.853,0,0,0,0,.848v18.3A0.853,0.853,0,0,0,.851,20h4.68V0h0Z"/>
</svg>
