<svg xmlns="http://www.w3.org/2000/svg" width="14" height="10" viewBox="0 0 14 10">
  <defs>
    <style>
      .cls-1 {
        fill: #7f7c88;
        fill-rule: evenodd;
      }
    </style>
  </defs>
  <path id="Shape_1130_copy_4" data-name="Shape 1130 copy 4" class="cls-1" d="M6.421,10A0.575,0.575,0,0,1,6.015,9.83l-5.838-5.8A0.612,0.612,0,0,1,.17,3.172l1.751-1.8a0.572,0.572,0,0,1,.826,0L6.421,5.15,7.93,3.6,6.808,2.442A0.613,0.613,0,0,1,6.66,1.849,0.589,0.589,0,0,1,7.094,1.43L13.3,0.006a0.572,0.572,0,0,1,.533.154A0.608,0.608,0,0,1,14,.7L12.8,7.281a0.593,0.593,0,0,1-.4.463,0.575,0.575,0,0,1-.585-0.149l-1.409-1.45L6.833,9.822A0.574,0.574,0,0,1,6.421,10"/>
</svg>
