<svg xmlns="http://www.w3.org/2000/svg" width="14" height="12" viewBox="0 0 14 12">
  <defs>
    <style>
      .cls-1 {
        fill: #7f7c88;
        fill-rule: evenodd;
      }
    </style>
  </defs>
  <path id="Shape_1_copy_5" data-name="Shape 1 copy 5" class="cls-1" d="M11.469,0H1.7A1.767,1.767,0,0,0,0,1.824V9.812a1.457,1.457,0,0,0,1.5,1.643h8A2.779,2.779,0,0,1,9,9.272a2.922,2.922,0,0,1,2.5-2.727,2.948,2.948,0,0,1,2,.545V1.636A1.907,1.907,0,0,0,11.469,0Zm0.106,4.079L6.585,6.6,1.6,4.079V2.85L6.585,5.378,11.574,2.85V4.079Zm0.18,3.042A2.348,2.348,0,0,0,9.51,9.56,2.347,2.347,0,0,0,11.755,12,2.348,2.348,0,0,0,14,9.56,2.348,2.348,0,0,0,11.755,7.121ZM13.114,9.7s0,0.008,0,.012l-0.757,1.061a0.217,0.217,0,0,1-.174.093,0.207,0.207,0,0,1-.137-0.052,0.26,0.26,0,0,1-.036-0.342L12.48,9.8H10.575a0.245,0.245,0,0,1,0-.488h1.906l-0.474-.666A0.262,0.262,0,0,1,12.051,8.3a0.217,0.217,0,0,1,.312.059L13.11,9.408a0.091,0.091,0,0,1,0,.015,0.249,0.249,0,0,1,.044.136A0.243,0.243,0,0,1,13.114,9.7Z"/>
</svg>
