<svg xmlns="http://www.w3.org/2000/svg" width="12" height="18" viewBox="0 0 12 18">
  <defs>
    <style>
      .cls-1 {
        fill: #fff;
        fill-rule: evenodd;
      }
    </style>
  </defs>
  <path id="Shape_1125_copy_2" data-name="Shape 1125 copy 2" class="cls-1" d="M11.329,0H0.669A0.616,0.616,0,0,0,0,.533V0.6a0.616,0.616,0,0,0,.673.536H0.736a0.385,0.385,0,0,0,.421.335h9.686a0.386,0.386,0,0,0,.421-0.335h0.066A0.616,0.616,0,0,0,12,.6V0.533A0.616,0.616,0,0,0,11.329,0ZM9.553,11.579C7.486,9.886,6.488,10.046,6.488,9.166V8.746c0-.877,1-0.72,3.066-2.41,1.676-1.372,1.4-3.747,1.242-4.6H1.2c-0.163.848-.436,3.224,1.24,4.6C4.512,8.028,5.511,7.868,5.511,8.748V9.169c0,0.877-1,.719-3.065,2.41C0.711,13,1.063,15.492,1.221,16.257h9.557C10.936,15.492,11.288,13,9.553,11.579Zm-6.4,3.053C4.416,13.851,5.5,13.4,5.829,13.111V8.063c-0.338-.4-1.426-1.028-2.674-2.1a3.225,3.225,0,0,1-1.04-2.056H9.883a3.225,3.225,0,0,1-1.04,2.056c-1.249,1.074-2.337,1.7-2.674,2.1v5.054c0.338,0.287,1.426.74,2.674,1.513a2.18,2.18,0,0,1,1.04,1.48H2.115A2.178,2.178,0,0,1,3.155,14.632Zm8.174,2.228H11.263a0.386,0.386,0,0,0-.421-0.336H1.156a0.385,0.385,0,0,0-.421.336H0.669A0.616,0.616,0,0,0,0,17.4v0.067A0.617,0.617,0,0,0,.669,18h10.66A0.617,0.617,0,0,0,12,17.463V17.4A0.616,0.616,0,0,0,11.329,16.86Z"/>
</svg>
