<svg xmlns="http://www.w3.org/2000/svg" width="20" height="20" viewBox="0 0 20 20">
  <defs>
    <style>
      .cls-1 {
        fill: #f6635f;
        fill-rule: evenodd;
      }
    </style>
  </defs>
  <path class="cls-1" d="M10,0A10,10,0,1,0,20,10,10,10,0,0,0,10,0ZM9.053,4.184a0.947,0.947,0,0,1,1.895,0V8.763a0.947,0.947,0,0,1-1.895,0V4.184ZM14.237,14.29A5.992,5.992,0,1,1,5.763,5.816,0.968,0.968,0,0,1,7.132,7.184a4.057,4.057,0,0,0-1.184,2.895,4.1,4.1,0,0,0,1.184,2.895,4.058,4.058,0,0,0,2.895,1.184,4.149,4.149,0,0,0,2.895-1.184,4.058,4.058,0,0,0,1.184-2.895,4.1,4.1,0,0,0-1.184-2.895A0.968,0.968,0,0,1,14.29,5.816a5.952,5.952,0,0,1,1.763,4.237A6.051,6.051,0,0,1,14.237,14.29Z"/>
</svg>
