<svg xmlns="http://www.w3.org/2000/svg" width="14" height="14" viewBox="0 0 14 14">
  <defs>
    <style>
      .cls-1 {
        fill: #7f7c88;
        fill-rule: evenodd;
      }
    </style>
  </defs>
  <path id="Shape_1128_copy_4" data-name="Shape 1128 copy 4" class="cls-1" d="M8.042,14A4.692,4.692,0,0,1,7.6,7.571C7.447,7.482,7.3,7.39,7.151,7.292L7.12,7.272a3.081,3.081,0,0,0,.61-1.313,2.738,2.738,0,0,0,.69-1.692c0-.436-0.05-0.656-0.249-0.652L8.156,2.359A2.3,2.3,0,0,0,5.738,0a2.305,2.305,0,0,0-2.418,2.36L3.3,3.614c-0.2,0-.248.216-0.248,0.652a2.739,2.739,0,0,0,.69,1.692,3.081,3.081,0,0,0,.61,1.313l-0.031.02c-0.975.658-2.138,1.1-2.9,1.548a1.986,1.986,0,0,0-.614.611,4.225,4.225,0,0,0-.323.6l-0.01.023c-0.013.029-.025,0.058-0.037,0.088a5.759,5.759,0,0,0-.379,1.362l0,0.027c0,0.022-.007.044-0.01,0.066q-0.02.12-.036,0.239C0,11.942,0,13.893,0,13.984V14H8.042Zm2.723-6.889a3.344,3.344,0,0,0-3.234,3.444A3.344,3.344,0,0,0,10.765,14,3.344,3.344,0,0,0,14,10.552,3.345,3.345,0,0,0,10.765,7.107Zm1.922,3.931H8.843V10.065h3.845v0.974Z"/>
</svg>
