<svg xmlns="http://www.w3.org/2000/svg" width="10" height="16" viewBox="0 0 10 16">
  <defs>
    <style>
      .cls-1 {
        fill: #7f7c88;
        fill-rule: evenodd;
      }
    </style>
  </defs>
  <path class="cls-1" d="M10,11.374A4.734,4.734,0,0,1,5.195,16a4.738,4.738,0,0,1-4.8-4.626v-4.9c0-.185.068-0.2,0.186-0.192C1.445,6.316,2.314,6.6,2.314,8.51V3.263a0.909,0.909,0,0,1,.9-0.92c0.027,0,.054,0,0.081.005a0.9,0.9,0,0,1,.941.855q0,0.03,0,.059V6.711a0.96,0.96,0,0,1,1.918,0V7.547a0.963,0.963,0,0,1,1.924,0v1.16a0.96,0.96,0,0,1,1.918,0v2.666h0ZM6.43,4.021a0.494,0.494,0,0,1-.6.323A0.46,0.46,0,0,1,5.5,3.8q0-.015.007-0.029a2.052,2.052,0,0,0,.087-0.616A2.274,2.274,0,0,0,3.276.925,2.275,2.275,0,0,0,.955,3.155a2.054,2.054,0,0,0,.093.616,0.464,0.464,0,0,1-.311.562l-0.025.006a0.475,0.475,0,0,1-.59-0.317A3.15,3.15,0,0,1,0,3.155,3.1,3.1,0,0,1,.955.925,3.333,3.333,0,0,1,3.275,0,3.307,3.307,0,0,1,5.592.925,3.07,3.07,0,0,1,6.43,4.021Z"/>
</svg>
