<svg xmlns="http://www.w3.org/2000/svg" width="32" height="20" viewBox="0 0 32 20">
  <defs>
    <style>
      .cls-1 {
        fill: #318a78;
        fill-rule: evenodd;
      }
    </style>
  </defs>
  <path id="Shape_1129_copy" data-name="Shape 1129 copy" class="cls-1" d="M28.892,0H11.1A3.12,3.12,0,0,0,8,3.137V16.861A3.12,3.12,0,0,0,11.1,20H28.892a3.121,3.121,0,0,0,3.1-3.139V3.137A3.121,3.121,0,0,0,28.892,0ZM20,11.351l-9.09-4.342V4.9L20,9.241,29.087,4.9v2.11ZM5.928,7.14H1.072a1.07,1.07,0,1,1,0-2.14H5.928A1.07,1.07,0,1,1,5.928,7.14Zm0,3.93h-3.1a1.07,1.07,0,1,1,0-2.14h3.1A1.07,1.07,0,1,1,5.928,11.07Zm0,3.93H4.574a1.07,1.07,0,1,1,0-2.139H5.928A1.07,1.07,0,1,1,5.928,15Z"/>
</svg>
