<svg xmlns="http://www.w3.org/2000/svg" width="27" height="20" viewBox="0 0 27 20">
  <defs>
    <style>
      .cls-1 {
        fill: #fff;
        fill-rule: evenodd;
      }
    </style>
  </defs>
  <path class="cls-1" d="M0.837,0.115A0.845,0.845,0,0,0-.009.96v18.2A0.845,0.845,0,0,0,.837,20H5.5V0.115H0.837ZM12.4,17.834l-0.836-.974,0.836-.965a6.376,6.376,0,0,1,.5-0.537H7.149v4.6h7.765A9.884,9.884,0,0,1,12.4,17.834Zm-5.246-6.95v2.864h7.775A10.327,10.327,0,0,1,19.9,12.285v-1.4H7.149Zm0-4.524V9.233H19.9V6.359H7.149ZM19.056,0.115H7.149v4.6H19.9V0.96A0.845,0.845,0,0,0,19.056.115Zm1.2,13.652a8.728,8.728,0,0,0-5.067,1.591,8.481,8.481,0,0,0-1.662,1.5,8.831,8.831,0,0,0,5.794,3.053h0.01a8.838,8.838,0,0,0,6.7-2.078A8.939,8.939,0,0,0,27,16.859,8.815,8.815,0,0,0,20.26,13.767Zm0.01,4.862H20.26a1.464,1.464,0,0,1-.358-0.04,1.753,1.753,0,0,1-1.4-1.73,1.789,1.789,0,0,1,1.772-1.77A1.77,1.77,0,1,1,20.27,18.629Z"/>
</svg>
