<svg xmlns="http://www.w3.org/2000/svg" width="26" height="20" viewBox="0 0 26 20">
  <defs>
    <style>
      .cls-1 {
        fill: #318a78;
        fill-rule: evenodd;
      }
    </style>
  </defs>
  <path id="Shape_1123_copy" data-name="Shape 1123 copy" class="cls-1" d="M21.3,0H3.162A3.105,3.105,0,0,0,0,3.046V16.363A2.554,2.554,0,0,0,2.785,19.1H17.643c-0.957-.862-1.036-2.276-0.929-3.638a5.1,5.1,0,0,1,4.643-4.547,5.941,5.941,0,0,1,3.714.909V2.731C25.071,1.053,23.044,0,21.3,0Zm0.2,6.8-9.265,4.214L2.964,6.8V4.756L12.229,8.97l9.265-4.215V6.8Zm0.334,5.073A4.066,4.066,0,1,0,26,15.942a4.091,4.091,0,0,0-4.17-4.067v0Zm2.526,4.293a0.068,0.068,0,0,1-.007.02l-1.405,1.77a0.419,0.419,0,0,1-.323.154,0.407,0.407,0,0,1-.411-0.4,0.4,0.4,0,0,1,.09-0.254l0.879-1.109H19.642a0.407,0.407,0,1,1,0-.814h3.542L22.3,14.423a0.407,0.407,0,0,1,.072-0.576l0.008-.006a0.431,0.431,0,0,1,.579.1l1.389,1.748a0.152,0.152,0,0,1,.009.025,0.385,0.385,0,0,1,.081.227,0.381,0.381,0,0,1-.085.231v0Z"/>
</svg>
