<svg xmlns="http://www.w3.org/2000/svg" width="22" height="22" viewBox="0 0 22 22">
  <defs>
    <style>
      .cls-1 {
        fill: #fff;
        fill-rule: evenodd;
      }
    </style>
  </defs>
  <path id="Shape_541_copy_2" data-name="Shape 541 copy 2" class="cls-1" d="M19.8,0H2.2A2.19,2.19,0,0,0,0,2.158v12.57a2.16,2.16,0,0,0,2.2,2.158H3.745L3.183,21.06A0.858,0.858,0,0,0,3.6,21.9,0.7,0.7,0,0,0,4.025,22,0.7,0.7,0,0,0,4.54,21.81l6.038-4.925H19.8A2.19,2.19,0,0,0,22,14.728V2.158A2.19,2.19,0,0,0,19.8,0ZM15.868,11.726H6.132a0.844,0.844,0,0,1,0-1.688h9.689a0.84,0.84,0,0,1,.842.844A0.8,0.8,0,0,1,15.868,11.726Zm0-4.831H6.132a0.844,0.844,0,0,1,0-1.689h9.689a0.84,0.84,0,0,1,.842.844A0.8,0.8,0,0,1,15.868,6.895Z"/>
</svg>
