<svg xmlns="http://www.w3.org/2000/svg" width="26" height="20" viewBox="0 0 26 20">
  <defs>
    <style>
      .cls-1 {
        fill: #fff;
        fill-rule: evenodd;
      }
    </style>
  </defs>
  <path id="Shape_1120_copy_2" data-name="Shape 1120 copy 2" class="cls-1" d="M7.195,0A2.827,2.827,0,0,0,4.164,2.861L4.144,4.382c-0.251,0-.312.261-0.312,0.79A3.263,3.263,0,0,0,4.7,7.222a3.683,3.683,0,0,0,.765,1.592l-0.039.024c-1.223.8-2.681,1.337-3.634,1.877a2.447,2.447,0,0,0-.769.742,4.976,4.976,0,0,0-.406.726c0,0.009-.007.019-0.011,0.028-0.016.036-.032,0.071-0.047,0.106a6.81,6.81,0,0,0-.475,1.651A0.173,0.173,0,0,1,.076,14c0,0.027-.007.056-0.011,0.08-0.014.1-.032,0.2-0.045,0.292A2.186,2.186,0,0,0,0,14.7v0.016a1,1,0,0,0,.87.681,12.573,12.573,0,0,0,1.716.333c0.7,0.123,1.408.2,2.118,0.261a6.185,6.185,0,0,1,1.051-1.937c1.144-1.222,2.8-1.6,4.191-2.407,0.187-.116-1.047-2.237-1.164-2.5a3.091,3.091,0,0,1,.027-2.615,19.032,19.032,0,0,1,.247-2.533,3.629,3.629,0,0,1,1.092-1.773A2.731,2.731,0,0,0,7.2,0h0ZM13,2A3.159,3.159,0,0,0,9.612,5.2L9.59,6.9c-0.28,0-.347.293-0.347,0.884a3.647,3.647,0,0,0,.967,2.294,4.111,4.111,0,0,0,.854,1.778l-0.043.027h0c-1.367.889-3,1.495-4.061,2.1a2.735,2.735,0,0,0-.861.829,5.625,5.625,0,0,0-.452.812l-0.014.03c-0.018.039-.035,0.079-0.052,0.119a7.623,7.623,0,0,0-.531,1.846l-0.008.039c0,0.03-.01.059-0.014,0.089-0.018.111-.036,0.217-0.052,0.324a2.424,2.424,0,0,0-.022.369v0.017c-0.036.575,0.972,0.762,0.972,0.762a14.148,14.148,0,0,0,1.916.372,32.433,32.433,0,0,0,4.558.4Q12.623,20,12.863,20h0.274c0.16,0,.312,0,0.46-0.008a32.425,32.425,0,0,0,4.556-.4,14.23,14.23,0,0,0,1.919-.372s1.008-.187.97-0.762V18.436a2.432,2.432,0,0,0-.022-0.369C21,17.914,20.976,17.759,20.948,17.6a7.492,7.492,0,0,0-.61-2.008l-0.009-.022a5.536,5.536,0,0,0-.427-0.76,2.74,2.74,0,0,0-.862-0.829c-1.067-.605-2.7-1.206-4.065-2.1h0l-0.043-.027a4.116,4.116,0,0,0,.854-1.778,3.648,3.648,0,0,0,.967-2.294c0-.592-0.069-0.889-0.349-0.884l-0.02-1.7A3.161,3.161,0,0,0,13,2h0Zm5.8-2a2.828,2.828,0,0,1,3.031,2.862l0.02,1.521c0.251,0,.312.261,0.312,0.791A3.263,3.263,0,0,1,21.3,7.222a3.684,3.684,0,0,1-.766,1.592l0.039,0.024c1.223,0.8,2.681,1.337,3.634,1.877a2.448,2.448,0,0,1,.769.742,5,5,0,0,1,.406.726c0,0.009.007,0.019,0.012,0.028,0.016,0.036.032,0.071,0.047,0.106a6.807,6.807,0,0,1,.475,1.651,0.172,0.172,0,0,0,.007.031c0,0.027.008,0.056,0.011,0.08,0.016,0.1.033,0.194,0.046,0.29A2.164,2.164,0,0,1,26,14.7v0.016a1,1,0,0,1-.87.681,12.554,12.554,0,0,1-1.716.334c-0.7.123-1.408,0.2-2.117,0.261a6.187,6.187,0,0,0-1.05-1.935c-1.144-1.222-2.8-1.6-4.192-2.407-0.187-.116,1.047-2.237,1.164-2.5a3.09,3.09,0,0,0-.028-2.615,19,19,0,0,0-.247-2.533,3.628,3.628,0,0,0-1.092-1.773A2.731,2.731,0,0,1,18.8,0h0Z"/>
</svg>
