<svg xmlns="http://www.w3.org/2000/svg" width="28" height="32" viewBox="0 0 28 32">
  <defs>
    <style>
      .cls-1 {
        fill: #fff;
        fill-rule: evenodd;
      }
    </style>
  </defs>
  <path class="cls-1" d="M26.42,22.192c-1.074-1.143-2.164-2.27-3.242-3.4-0.537-.556-1.069-1.122-1.608-1.678a9.9,9.9,0,0,0,1.9-5.332A9.829,9.829,0,0,0,14.339,1.213a9.045,9.045,0,0,0-3.654.561,5.255,5.255,0,0,1,.356,1.953,5.1,5.1,0,0,1-.111,1,6.661,6.661,0,0,1,3.4-.7,7.06,7.06,0,0,1,6.445,7.5,6.981,6.981,0,0,1-7.241,6.707l-0.042,0a0.748,0.748,0,0,1-.111-0.011,5.321,5.321,0,0,1-.376,1.626,6.018,6.018,0,0,1-.579,1.1,9.024,9.024,0,0,0,1.129.114A9.234,9.234,0,0,0,18.6,19.8q2.131,2.828,4.277,5.656a1.855,1.855,0,0,0,1.451.768,1.717,1.717,0,0,0,1.265-.452c0.251-.218.5-0.448,0.743-0.675a1.987,1.987,0,0,0,.168-2.815Q26.463,22.234,26.42,22.192ZM9.532,3.709A3.756,3.756,0,0,1,5.923,7.382,3.788,3.788,0,0,1,2.375,3.634,3.68,3.68,0,0,1,6,0,3.678,3.678,0,0,1,9.532,3.709Zm2.359,7.7c0-.157-0.042-0.512-0.079-0.86-0.03-.274-0.057-0.532-0.061-0.63a0.918,0.918,0,0,0-.693-0.873l-0.072-.022c-0.52-.165-1.039-0.348-1.527-0.52L9.284,8.437a4.086,4.086,0,0,0-.927-0.287l-0.064.008a0.525,0.525,0,0,0-.333.371C7.945,8.57,7.8,9.062,7.608,9.691c-0.234.777-.531,1.765-0.715,2.368L6.674,10.348a0.416,0.416,0,0,0-.007-0.069l-0.024-.206C6.63,9.967,6.62,9.889,6.616,9.853c0.033-.083.064-0.161,0.1-0.241l0.012-.029c0.019-.047.041-0.1,0.064-0.147l0.033-.064a0.61,0.61,0,0,0,.084-0.284,1.892,1.892,0,0,0-.136-0.413,0.31,0.31,0,0,0-.193-0.137L6.519,8.532a0.188,0.188,0,0,0-.071-0.012c-0.074,0-.257-0.005-0.493-0.005s-0.419,0-.486,0a0.214,0.214,0,0,0-.078.012l-0.073.008a0.278,0.278,0,0,0-.171.117A1.665,1.665,0,0,0,5,9.088a0.559,0.559,0,0,0,.084.277L5.116,9.437c0.019,0.044.042,0.095,0.06,0.142L5.188,9.609c0.035,0.08.069,0.158,0.1,0.241,0,0.039-.014.115-0.026,0.22l-0.023.2a0.323,0.323,0,0,0-.007.059l-0.22,1.728c-0.185-.6-0.481-1.591-0.715-2.368C4.11,9.058,3.962,8.566,3.949,8.526a0.525,0.525,0,0,0-.332-0.372L3.553,8.146a4.086,4.086,0,0,0-.924.286C2.554,8.459,2.493,8.483,2.453,8.5,1.965,8.669,1.445,8.85.925,9.016l-0.071.022a0.919,0.919,0,0,0-.7.873c0,0.1-.031.355-0.06,0.629-0.037.345-.075,0.7-0.079,0.86-0.042,1.939-.042,4.064,0,6.494A3.8,3.8,0,0,0,.293,19.25a4.937,4.937,0,0,0,.8,1.324,0.546,0.546,0,0,1,.035.046,1.617,1.617,0,0,1,.141.225c0.01,0.179.016,0.358,0.023,0.537C1.352,22.69,1.4,22.83,1.44,24.006c0,0.1.011,0.2,0.021,0.276v3.977a3.513,3.513,0,0,0,3.288,3.727q0.16,0.01.321,0.006H6.854a3.514,3.514,0,0,0,3.609-3.416q0-.159-0.007-0.318V24.3c0.011-.1.018-0.192,0.021-0.291,0.038-1.179.089-1.319,0.146-2.628,0.007-.18.015-0.359,0.023-0.538a1.7,1.7,0,0,1,.147-0.232,0.45,0.45,0,0,1,.032-0.04,4.949,4.949,0,0,0,.8-1.316,3.814,3.814,0,0,0,.277-1.357C11.933,15.469,11.933,13.345,11.891,11.406Z"/>
</svg>
