<svg xmlns="http://www.w3.org/2000/svg" width="10" height="10" viewBox="0 0 10 10">
  <defs>
    <style>
      .cls-1 {
        fill: #7f7c88;
        fill-rule: evenodd;
      }
    </style>
  </defs>
  <path id="Shape_1149_copy" data-name="Shape 1149 copy" class="cls-1" d="M6.589,6.376A0.887,0.887,0,0,1,6.5,6.187a1.662,1.662,0,0,1-.079-0.5,1.643,1.643,0,0,1,.536-1.208,1.785,1.785,0,0,1,2.391,0,1.618,1.618,0,0,1,.48,1.621A1.07,1.07,0,0,1,10,6V1A1.02,1.02,0,0,0,9,0H1A1.023,1.023,0,0,0,0,1s-0.174.243,0,0v9L2,8H6L6.538,6.67A0.844,0.844,0,0,1,6.589,6.376ZM6.7,3.116H7.669V4.1H6.7V3.116ZM3.8,4.1H2.839V3.116H3.8V4.1Zm1.932,0H4.771V3.116H5.737V4.1h0Zm4.486,4.021A1.433,1.433,0,0,1,8.739,9.484,1.433,1.433,0,0,1,7.256,8.117V6.67c0-.055.021-0.059,0.057-0.057C7.582,6.622,7.85,6.707,7.85,7.27V5.72a0.275,0.275,0,0,1,.277-0.272h0a0.136,0.136,0,0,1,.025,0,0.272,0.272,0,0,1,.291.251V6.739a0.3,0.3,0,0,1,.592,0V6.986a0.3,0.3,0,0,1,.593,0V7.329a0.3,0.3,0,0,1,.592,0V8.117h0Zm-1.1-2.173a0.153,0.153,0,0,1-.184.1,0.137,0.137,0,0,1-.1-0.161,0.031,0.031,0,0,1,0-.009,0.582,0.582,0,0,0,.027-0.182,0.718,0.718,0,0,0-1.43,0,0.586,0.586,0,0,0,.029.182,0.137,0.137,0,0,1-.1.166l-0.008,0a0.148,0.148,0,0,1-.182-0.094,0.882,0.882,0,0,1,.257-0.915,1.071,1.071,0,0,1,1.43,0A0.878,0.878,0,0,1,9.121,5.944Z"/>
</svg>
