<svg xmlns="http://www.w3.org/2000/svg" width="11" height="9" viewBox="0 0 11 9">
  <defs>
    <style>
      .cls-1 {
        fill: #7f7c88;
        fill-rule: evenodd;
      }
    </style>
  </defs>
  <path id="Shape_1148_copy" data-name="Shape 1148 copy" class="cls-1" d="M8.509,4.717a2.211,2.211,0,1,0,.03,0H8.509ZM9.867,7.039a0.039,0.039,0,0,1,0,.011l-0.755.957a0.224,0.224,0,0,1-.174.083,0.218,0.218,0,0,1-.172-0.355l0.472-.6h-1.9a0.22,0.22,0,1,1-.014-0.44H9.237l-0.472-.6A0.221,0.221,0,0,1,8.8,5.783h0l0,0a0.231,0.231,0,0,1,.311.054L9.866,6.778a0.081,0.081,0,0,1,.005.014,0.21,0.21,0,0,1,.043.123,0.207,0.207,0,0,1-.046.125h0ZM6.43,4.874A2.936,2.936,0,0,1,8.5,3.994l0.531-.006L9.051,4.045a2.978,2.978,0,0,1,.692.218V0.834A0.974,0.974,0,0,0,8.766-.136H0.943A0.97,0.97,0,0,0-.03.83v0l0,8.736L1.921,7.629H5.684A2.878,2.878,0,0,1,6.43,4.874ZM6.321,3.261H7.3V4.232H6.321V3.261Zm-2.933.971H2.41V3.261H3.388V4.232h0Zm1.956,0H4.364V3.261H5.342V4.232h0Z"/>
</svg>
