<svg xmlns="http://www.w3.org/2000/svg" width="38" height="36" viewBox="0 0 38 36">
  <defs>
    <style>
      .cls-1 {
        fill: #fff;
        fill-rule: evenodd;
      }
    </style>
  </defs>
  <path class="cls-1" d="M29.469,8.162a3.968,3.968,0,0,0,2.866-1.129A4.131,4.131,0,0,0,32.506,1.3l-0.041-.044a3.968,3.968,0,0,0-5.677-.132,4.131,4.131,0,0,0-.171,5.728L26.658,6.9A3.973,3.973,0,0,0,29.469,8.162Zm6.588,4.093a3.976,3.976,0,0,0-5.507,1.409,4.122,4.122,0,0,0,1.341,5.572l0.044,0.027a3.976,3.976,0,0,0,5.507-1.409A4.122,4.122,0,0,0,36.1,12.282l-0.043-.026h0ZM4.03,2.693A4.026,4.026,0,0,0,.008,6.724,4.032,4.032,0,0,0,3.93,10.858a4.024,4.024,0,0,0,4.022-3.99A4.052,4.052,0,0,0,4.033,2.693h0ZM17.553,27.844a3.945,3.945,0,0,0-2.048.519,4.118,4.118,0,0,0-1.569,5.51l0.025,0.047a3.98,3.98,0,0,0,5.463,1.569,4.118,4.118,0,0,0,1.569-5.51l-0.025-.047A4,4,0,0,0,17.553,27.844ZM16.881,27.2a4.6,4.6,0,0,1,1.338.027l0.046-2.53c-0.235.013-.471,0.026-0.71,0.02a9.046,9.046,0,0,1-6.6-3.1l-0.009-.011q-0.273-.313-0.517-0.643c-0.011-.014-0.02-0.029-0.03-0.043-0.152-.214-0.3-0.432-0.438-0.658-0.018-.029-0.034-0.06-0.05-0.089-0.126-.214-0.246-0.433-0.355-0.658-0.024-.048-0.043-0.1-0.066-0.148-0.1-.21-0.191-0.423-0.273-0.641-0.027-.074-0.049-0.15-0.076-0.225-0.069-.2-0.138-0.4-0.193-0.6-0.028-.1-0.047-0.21-0.076-0.313-0.04-.185-0.084-0.366-0.117-0.553-0.025-.145-0.037-0.293-0.056-0.439s-0.044-.3-0.056-0.459c-0.018-.247-0.021-0.5-0.021-0.747,0-.059-0.006-0.118,0-0.178V15.179c0.008-.28.029-0.557,0.06-0.832,0.011-.094.026-0.185,0.04-0.278,0.027-.193.06-0.386,0.1-0.577,0.021-.1.043-0.2,0.067-0.3,0.045-.185.1-0.366,0.152-0.548,0.028-.092.055-0.185,0.085-0.275,0.012-.035.021-0.072,0.033-0.107l-0.944-.346a10.446,10.446,0,0,0-.6,3.27A10.26,10.26,0,0,0,16.91,25.693ZM10.351,9.983h0c0.006-.009.013-0.015,0.019-0.024a9.315,9.315,0,0,1,.639-0.792c0.044-.049.089-0.1,0.134-0.143q0.312-.334.654-0.635c0.035-.03.069-0.063,0.105-0.092a9.092,9.092,0,0,1,2.772-1.621l0.076-.028a8.9,8.9,0,0,1,.907-0.269l0.185-.044q0.42-.091.852-0.142c0.076-.009.144-0.022,0.217-0.029a9.069,9.069,0,0,1,1.064-.039h0.018c0.267,0.007.533,0.029,0.8,0.06l0.229,0.028c0.255,0.036.509,0.078,0.762,0.136,0.057,0.013.113,0.03,0.17,0.044q0.3,0.078.6,0.173l0.238,0.078c0.232,0.087.461,0.178,0.689,0.281,0.046,0.021.09,0.045,0.136,0.067q0.294,0.138.578,0.3c0.065,0.037.13,0.073,0.194,0.111,0.043,0.026.088,0.048,0.13,0.078l0.523-.872A10.051,10.051,0,0,0,9.491,9.449L8.236,8.666a4.769,4.769,0,0,1-.7,1.158L9.654,11.15a9.387,9.387,0,0,1,.7-1.163v0Zm19.028,5-2.491-.052c0.012,0.235.024,0.47,0.019,0.7s-0.027.438-.047,0.656h0a0.584,0.584,0,0,1-.008.063c-0.02.2-.049,0.4-0.081,0.6-0.008.053-.018,0.1-0.027,0.156a9.287,9.287,0,0,1-4.352,6.322c-0.062.038-.124,0.074-0.187,0.11-0.152.085-.3,0.167-0.457,0.245-0.106.052-.214,0.1-0.322,0.149-0.13.058-.259,0.117-0.392,0.169-0.186.073-.375,0.136-0.567,0.2-0.082.026-.162,0.055-0.245,0.078-0.223.064-.449,0.121-0.679,0.166l0.194,1a10.32,10.32,0,0,0,8.133-9.236l1.485,0.03a4.823,4.823,0,0,1,.021-1.359v0ZM24.847,9.55h0c0.011,0.013.019,0.029,0.03,0.042a9.311,9.311,0,0,1,.619.877c0.034,0.055.063,0.112,0.095,0.167q0.219,0.37.405,0.76c0.048,0.1.093,0.205,0.138,0.309,0.1,0.235.189,0.47,0.27,0.709,0.034,0.1.072,0.2,0.1,0.307a9.369,9.369,0,0,1,.247,1.012c0,0.008,0,.015.005,0.024l0.99-.182a10.335,10.335,0,0,0-2.167-4.731l1.073-1.032a4.3,4.3,0,0,1-.919-0.988l-1.81,1.741A9.292,9.292,0,0,1,24.847,9.55Zm-7.206,3.523a17.566,17.566,0,0,1,2.081.1C22.314,13.468,23,15.034,23,15.034c0-3.822-5.356-4.218-5.356-4.218V9L13,12.018l4.639,3.015v-1.96Zm0.716,4.868a17.484,17.484,0,0,1-2.081-.1C13.684,17.546,13,15.981,13,15.981c0,3.823,5.247,5.165,5.247,5.165l0.108,0.866L23,19l-4.639-3.015v1.96Z"/>
</svg>
