<svg xmlns="http://www.w3.org/2000/svg" width="22" height="17" viewBox="0 0 22 17">
  <defs>
    <style>
      .cls-1 {
        fill: #5678ce;
        fill-rule: evenodd;
      }
    </style>
  </defs>
  <path id="Shape_1120_copy_2" data-name="Shape 1120 copy 2" class="cls-1" d="M5.984,0A2.342,2.342,0,0,0,3.474,2.37L3.457,3.63c-0.208,0-.258.216-0.258,0.655a2.7,2.7,0,0,0,.718,1.7A3.052,3.052,0,0,0,4.551,7.3l-0.032.02c-1.013.66-2.221,1.108-3.01,1.555a2.03,2.03,0,0,0-.637.614,4.146,4.146,0,0,0-.336.6c0,0.008-.006.016-0.01,0.023C0.513,10.144.5,10.173,0.486,10.2A5.651,5.651,0,0,0,.093,11.57a0.141,0.141,0,0,1-.006.026c0,0.022-.006.046-0.009,0.066-0.012.083-.026,0.164-0.037,0.242a1.806,1.806,0,0,0-.018.273V12.19a0.832,0.832,0,0,0,.72.564,10.471,10.471,0,0,0,1.422.276c0.579,0.1,1.166.169,1.754,0.216a5.124,5.124,0,0,1,.871-1.6c0.948-1.013,2.32-1.324,3.472-1.994A9.744,9.744,0,0,0,7.3,7.582a2.56,2.56,0,0,1,.023-2.166,15.763,15.763,0,0,1,.2-2.1,3.006,3.006,0,0,1,.9-1.469A2.262,2.262,0,0,0,5.985,0h0Zm4.808,1.657A2.616,2.616,0,0,0,7.986,4.306L7.968,5.714c-0.232,0-.287.243-0.287,0.732a3.022,3.022,0,0,0,.8,1.9A3.407,3.407,0,0,0,9.19,9.819l-0.036.022h0c-1.132.737-2.482,1.238-3.364,1.738a2.266,2.266,0,0,0-.713.687,4.651,4.651,0,0,0-.375.673l-0.012.025-0.043.1a6.313,6.313,0,0,0-.44,1.529L4.2,14.623c0,0.025-.008.049-0.012,0.074-0.015.092-.03,0.18-0.043,0.269a2,2,0,0,0-.018.305v0.014a0.931,0.931,0,0,0,.805.631,11.672,11.672,0,0,0,1.587.308,26.855,26.855,0,0,0,3.775.335q0.184,0.008.383,0.008h0.227c0.132,0,.258,0,0.381-0.007a26.912,26.912,0,0,0,3.774-.335,11.792,11.792,0,0,0,1.59-.308,0.929,0.929,0,0,0,.8-0.631V15.271a2,2,0,0,0-.018-0.306c-0.017-.127-0.037-0.255-0.06-0.385a6.205,6.205,0,0,0-.5-1.664L16.864,12.9a4.564,4.564,0,0,0-.354-0.63,2.272,2.272,0,0,0-.714-0.687c-0.884-.5-2.233-1-3.367-1.739h0l-0.036-.022A3.408,3.408,0,0,0,13.1,8.349a3.023,3.023,0,0,0,.8-1.9c0-.49-0.057-0.736-0.289-0.732L13.6,4.309a2.618,2.618,0,0,0-2.8-2.653h0ZM15.6,0A2.343,2.343,0,0,1,18.111,2.37l0.016,1.26c0.208,0,.258.216,0.258,0.655a2.7,2.7,0,0,1-.718,1.7A3.053,3.053,0,0,1,17.034,7.3l0.032,0.02c1.013,0.66,2.221,1.108,3.01,1.555a2.032,2.032,0,0,1,.637.614,4.148,4.148,0,0,1,.336.6c0,0.008.006,0.016,0.009,0.023,0.013,0.03.027,0.058,0.039,0.088a5.642,5.642,0,0,1,.393,1.368,0.147,0.147,0,0,0,.006.026c0,0.022.006,0.046,0.009,0.066,0.013,0.081.027,0.161,0.038,0.24a1.8,1.8,0,0,1,.016.273v0.013a0.831,0.831,0,0,1-.72.564,10.438,10.438,0,0,1-1.422.276c-0.58.1-1.166,0.169-1.754,0.216a5.125,5.125,0,0,0-.87-1.6c-0.948-1.013-2.32-1.324-3.472-1.994a9.745,9.745,0,0,1,.964-2.067,2.559,2.559,0,0,0-.023-2.166,15.753,15.753,0,0,0-.2-2.1,3.006,3.006,0,0,0-.9-1.469A2.262,2.262,0,0,1,15.6,0h0Z"/>
</svg>
