<svg xmlns="http://www.w3.org/2000/svg" width="14" height="15" viewBox="0 0 14 15">
  <defs>
    <style>
      .cls-1 {
        fill: #7f7c88;
        fill-rule: evenodd;
      }
    </style>
  </defs>
  <path id="Clicked_Mail_copy_4" data-name="Clicked Mail copy 4" class="cls-1" d="M11.363,0H1.685A1.666,1.666,0,0,0,0,1.643v7.2A1.668,1.668,0,0,0,1.685,10.49H6.594a0.719,0.719,0,0,1,.137-0.856,0.757,0.757,0,0,1,.534-0.21,2.224,2.224,0,0,1,1.307.661V9.013l-0.207-.2A1.467,1.467,0,0,1,7.9,7.737a1.595,1.595,0,0,1,3.188,0,1.485,1.485,0,0,1-.188.714,0.949,0.949,0,0,1,.743.481,0.929,0.929,0,0,1,.519-0.16,0.947,0.947,0,0,1,.816.481L13,9.241a1.62,1.62,0,0,0,.049-0.4v-7.2A1.666,1.666,0,0,0,11.363,0Zm0.1,3.676L6.524,5.953,1.581,3.674V2.567L6.524,4.845l4.943-2.279V3.674Zm-2.8,4.063a0.834,0.834,0,0,1,1.666,0V8.512a1.11,1.11,0,0,0,.333-0.775,1.167,1.167,0,0,0-2.333,0,1.053,1.053,0,0,0,.333.775V7.738ZM13.5,9.513A0.5,0.5,0,0,0,13,10V10.8H12.664V9.675a0.5,0.5,0,0,0-1,0v0.807H11.331V9.352a0.5,0.5,0,0,0-1,0V10.8H10V7.738a0.5,0.5,0,0,0-1,0v3.325c-0.7-.71-1.6-1.485-1.967-1.13S7.6,11.257,8.9,13.387A2.878,2.878,0,0,0,11.5,15,2.479,2.479,0,0,0,14,12.58V10A0.5,0.5,0,0,0,13.5,9.513Z"/>
</svg>
