<svg xmlns="http://www.w3.org/2000/svg" width="24" height="21" viewBox="0 0 24 21">
  <defs>
    <style>
      .cls-1 {
        fill: #5678ce;
        fill-rule: evenodd;
      }
    </style>
  </defs>
  <path class="cls-1" d="M21.015,6.007H5.959a0.5,0.5,0,1,1,0-1H18.505a0.5,0.5,0,0,0,.5-0.5v-1a0.5,0.5,0,0,0-.5-0.5H11.479a1.006,1.006,0,0,1-1-1V1.5A1.433,1.433,0,0,0,9.12,0a0.8,0.8,0,0,0-.156,0H2.446A1.431,1.431,0,0,0,.94,1.348a0.8,0.8,0,0,0,0,.155V18.032a2.005,2.005,0,0,0,2.007,2H21.015a2.012,2.012,0,0,0,2.007-2V8.012A2.005,2.005,0,0,0,21.015,6.007Zm-5.224,7.22a0.982,0.982,0,0,0,.708.3h1a2,2,0,1,1,0,4.008v0.5a0.5,0.5,0,0,1-1,0v-0.5a2,2,0,0,1-2.008-2,0.5,0.5,0,0,1,1,0,1.01,1.01,0,0,0,1,1h1a1.006,1.006,0,0,0,1-1,1.01,1.01,0,0,0-1-1h-1a2,2,0,1,1,0-4.008v-0.5a0.5,0.5,0,0,1,1,0v0.5a2,2,0,0,1,2.007,2,0.5,0.5,0,0,1-1,0,1.01,1.01,0,0,0-1-1h-1a1.006,1.006,0,0,0-1,1A0.979,0.979,0,0,0,15.79,13.227Z"/>
</svg>
