<svg xmlns="http://www.w3.org/2000/svg" width="20" height="20" viewBox="0 0 20 20">
  <defs>
    <style>
      .cls-1 {
        fill: #fff;
        fill-rule: evenodd;
      }
    </style>
  </defs>
  <path id="Forma_1" data-name="Forma 1" class="cls-1" d="M18.12,0H12.481A5.232,5.232,0,0,0,9.273,1.327L0.539,10.051a1.881,1.881,0,0,0,0,2.655l6.74,6.732a1.886,1.886,0,0,0,2.658,0l8.734-8.724A5.22,5.22,0,0,0,20,7.509V1.876A1.884,1.884,0,0,0,18.12,0Zm-2.5,6.246A1.874,1.874,0,1,1,17.5,4.371,1.875,1.875,0,0,1,15.623,6.245Z"/>
</svg>
