<svg xmlns="http://www.w3.org/2000/svg" width="30" height="27" viewBox="0 0 30 27">
  <defs>
    <style>
      .cls-1 {
        fill: #fff;
        fill-rule: evenodd;
      }
    </style>
  </defs>
  <path class="cls-1" d="M23.221,13.184a6,6,0,1,0,.08,0h-0.08Zm3.7,6.32a0.1,0.1,0,0,1-.011.03L24.85,22.139a0.609,0.609,0,0,1-.473.227,0.595,0.595,0,0,1-.468-0.967l1.286-1.635H20.022a0.6,0.6,0,1,1-.037-1.2H25.2l-1.286-1.635a0.6,0.6,0,0,1,.1-0.845l0,0,0.012-.009a0.628,0.628,0,0,1,.847.146l2.032,2.574a0.245,0.245,0,0,1,.014.037,0.569,0.569,0,0,1,.117.334,0.561,0.561,0,0,1-.125.34H26.917Zm-9.354-5.893A7.989,7.989,0,0,1,23.2,11.217l1.446-.018L24.7,11.354a8.1,8.1,0,0,1,1.883.593V2.617A2.651,2.651,0,0,0,23.92-.025H2.631A2.639,2.639,0,0,0-.017,2.605V2.617L-0.03,26.391l5.322-5.283H15.535A7.831,7.831,0,0,1,17.563,13.611Zm-0.3-4.39h2.661v2.642H17.267V9.221ZM9.284,11.863H6.624V9.221H9.285v2.642h0Zm5.322,0H11.942V9.221H14.6v2.642h0Z"/>
</svg>
