<svg xmlns="http://www.w3.org/2000/svg" width="24" height="21" viewBox="0 0 24 21">
  <defs>
    <style>
      .cls-1 {
        fill: #318a78;
        fill-rule: evenodd;
      }
    </style>
  </defs>
  <path id="Shape_1146_copy_2" data-name="Shape 1146 copy 2" class="cls-1" d="M19.069,10.824a4.936,4.936,0,1,0,.066,0H19.069Zm3.036,5.192a0.091,0.091,0,0,1-.009.025l-1.689,2.14a0.5,0.5,0,0,1-.389.186,0.488,0.488,0,0,1-.384-0.794l1.056-1.343H16.441a0.492,0.492,0,1,1-.031-0.984H20.7L19.642,13.9a0.494,0.494,0,0,1,.083-0.694l0,0,0.01-.008a0.516,0.516,0,0,1,.7.12l1.67,2.114a0.2,0.2,0,0,1,.011.03,0.468,0.468,0,0,1,.1.274,0.461,0.461,0,0,1-.1.28h0Zm-7.684-4.841a6.563,6.563,0,0,1,4.631-1.967l1.188-.014,0.042,0.127a6.645,6.645,0,0,1,1.547.487V2.144a2.177,2.177,0,0,0-2.185-2.17H2.156A2.168,2.168,0,0,0-.019,2.134v0.01L-0.03,21.673l4.372-4.34h8.413A6.433,6.433,0,0,1,14.421,11.175ZM14.178,7.569h2.186v2.17H14.178V7.569ZM7.621,9.739H5.436V7.569H7.622v2.17h0Zm4.372,0H9.8V7.569H11.99v2.17h0Z"/>
</svg>
