<svg xmlns="http://www.w3.org/2000/svg" width="12" height="12" viewBox="0 0 12 12">
  <metadata><?xpacket begin="﻿" id="W5M0MpCehiHzreSzNTczkc9d"?>
<x:xmpmeta xmlns:x="adobe:ns:meta/" x:xmptk="Adobe XMP Core 5.6-c142 79.160924, 2017/07/13-01:06:39        ">
   <rdf:RDF xmlns:rdf="http://www.w3.org/1999/02/22-rdf-syntax-ns#">
      <rdf:Description rdf:about=""/>
   </rdf:RDF>
</x:xmpmeta>
                                                                                                    
                                                                                                    
                                                                                                    
                                                                                                    
                                                                                                    
                                                                                                    
                                                                                                    
                                                                                                    
                                                                                                    
                                                                                                    
                                                                                                    
                                                                                                    
                                                                                                    
                                                                                                    
                                                                                                    
                                                                                                    
                                                                                                    
                                                                                                    
                                                                                                    
                                                                                                    
                           
<?xpacket end="w"?></metadata>
<defs>
    <style>
      .cls-1 {
        fill: #fff;
        fill-rule: evenodd;
      }
    </style>
  </defs>
  <path id="settings" class="cls-1" d="M12,5.032c-0.116-.459-0.247-0.892-0.4-1.308A1.223,1.223,0,0,1,10.247,1.75,1.858,1.858,0,0,0,9.179.959,1.313,1.313,0,0,1,6.855,0c-0.5-.015-1.209.016-1.71,0a1.166,1.166,0,0,1-2.15.789,1.619,1.619,0,0,0-1,.835C2.691,2.5,2,3.8.539,3.416A10.516,10.516,0,0,0,.072,4.692,1.16,1.16,0,0,1,0,6.964a10.991,10.991,0,0,0,.4,1.3,1.234,1.234,0,0,1,1.358,1.984,1.764,1.764,0,0,0,1.067.783A1.313,1.313,0,0,1,5.145,12c0.511,0.012,1.2-.015,1.71,0A1.167,1.167,0,0,1,9,11.205a1.6,1.6,0,0,0,.989-0.834,1.184,1.184,0,0,1,1.456-1.8A8.517,8.517,0,0,0,11.921,7.3,1.15,1.15,0,0,1,12,5.032ZM8.266,6.059A2.267,2.267,0,1,1,6.06,3.75,2.28,2.28,0,0,1,8.266,6.059Z"/>
</svg>
